<svg id="Layer_1" data-name="Layer 1" xmlns="http://www.w3.org/2000/svg" xmlns:xlink="http://www.w3.org/1999/xlink" viewBox="0 0 64.444 64.444"><defs><style>.cls-1{fill:url(#linear-gradient);}.cls-2{fill:#008b15;}.cls-3{fill:#d6d6d6;}.cls-4{fill:url(#linear-gradient-2);}</style><linearGradient id="linear-gradient" x1="-420.605" y1="335.44" x2="-419.967" y2="334.812" gradientTransform="matrix(36.22, 0, 0, -20.953, 15253.717, 7039.789)" gradientUnits="userSpaceOnUse"><stop offset="0" stop-color="#dbdcdd"/><stop offset="0.124" stop-color="#e1e1e2"/><stop offset="0.657" stop-color="#f7f7f7"/><stop offset="1" stop-color="#fff"/></linearGradient><linearGradient id="linear-gradient-2" x1="-412.813" y1="338.815" x2="-412.813" y2="339.651" gradientTransform="matrix(18.107, 0, 0, -31.363, 7519.463, 10678.794)" gradientUnits="userSpaceOnUse"><stop offset="0.004" stop-color="#d0d2d3"/><stop offset="0.181" stop-color="#e2e3e4"/><stop offset="0.404" stop-color="#f2f3f3"/><stop offset="0.657" stop-color="#fcfcfc"/><stop offset="1" stop-color="#fff"/></linearGradient></defs><g id="Group_94" data-name="Group 94"><g id="Path_218" data-name="Path 218"><polygon class="cls-1" points="8.388 18.644 32.404 4.833 56.424 18.812 32.406 32.621 8.388 18.644"/><path class="cls-2" d="M32.4,5.122,55.925,18.811,32.406,32.333,8.887,18.645,32.4,5.122m0-.578L7.889,18.643,32.405,32.91l24.518-14.1L32.405,4.544Z"/></g><g id="Path_219" data-name="Path 219"><polygon class="cls-3" points="8.139 46.868 8.139 19.081 32.156 33.057 32.156 60.844 8.139 46.868"/><path class="cls-2" d="M8.389,19.516,31.906,33.2V60.408L8.389,46.724V19.516m-.5-.869V47.011l.013.009,24.5,14.258V32.913L7.889,18.647Z"/></g><g id="Path_220" data-name="Path 220"><polygon class="cls-4" points="32.66 33.066 56.673 19.245 56.673 47.042 32.66 60.841 32.66 33.066"/><path class="cls-2" d="M56.423,19.678V46.9L32.91,60.408V33.21L56.423,19.678m.5-.865-24.5,14.1h-.01V61.272L56.923,47.186V18.813Z"/></g></g></svg>