<svg id="Layer_1" data-name="Layer 1" xmlns="http://www.w3.org/2000/svg" viewBox="0 0 64 64"><defs><style>.cls-1{fill:#a4adb1;}.cls-2{fill:#fbfbfb;}</style></defs><path id="ic_cloud_24px" data-name="ic cloud 24px" class="cls-1" d="M49.77,26.832a18.1,18.1,0,0,0-33.811-4.827A14.482,14.482,0,0,0,17.53,50.888H48.925a12.041,12.041,0,0,0,.845-24.054Z"/><path id="Path_22" data-name="Path 22" class="cls-2" d="M38.977,35.057a5.075,5.075,0,0,0-.626-.782c-.037-.037-.082-.084-.135-.134l-.051-.048a4.111,4.111,0,0,0-.934-.644,3.759,3.759,0,0,0,1.495-1.326,4.046,4.046,0,0,0,.626-2.338A4.177,4.177,0,0,0,38.123,26.7a4.9,4.9,0,0,0-3.616-1.23H33.381V22.689A.691.691,0,0,0,32.692,22h-.058a.689.689,0,0,0-.688.689v2.776H29.21V22.689A.691.691,0,0,0,28.521,22h-.058a.69.69,0,0,0-.688.689v2.782H26.238a.691.691,0,0,0-.689.689v.058a.689.689,0,0,0,.689.688h1.448v3.2a9.137,9.137,0,0,1-4.78.633.1.1,0,0,0-.125.07.1.1,0,0,0,.018.09,9.651,9.651,0,0,0,4.886,3.92v1.822h0V40.9H26.236a.69.69,0,0,0-.688.689v.058a.689.689,0,0,0,.688.688h1.54v2.646a.69.69,0,0,0,.689.688h.058a.69.69,0,0,0,.689-.688V42.334h2.735v2.651a.69.69,0,0,0,.689.688h.058a.69.69,0,0,0,.689-.688V42.334h1.3a5.252,5.252,0,0,0,2.7-.662A4.483,4.483,0,0,0,39.1,39.913a4.89,4.89,0,0,0,.591-2.349A4.471,4.471,0,0,0,38.977,35.057Zm-9.772-8.146h4.989a4.35,4.35,0,0,1,2.711.723,2.55,2.55,0,0,1,.928,2.145,2.752,2.752,0,0,1-.928,2.228,3.1,3.1,0,0,1-1.228.61,11.076,11.076,0,0,0-5.561-1.165,8.008,8.008,0,0,1,5.344.073.1.1,0,0,0,.134-.053.1.1,0,0,0-.018-.108,5.65,5.65,0,0,0-6.371-1.72Zm7.977,13.05a3.862,3.862,0,0,1-2.747.929h-5.23v-5.7a9.394,9.394,0,0,0,5.6-.936,5.11,5.11,0,0,1,.708.088h0c.107.022.211.047.312.076l.04.013c.084.024.166.052.247.082l.043.016a3.34,3.34,0,0,1,1.025,5.437Z"/></svg>