<svg id="Layer_1" data-name="Layer 1" xmlns="http://www.w3.org/2000/svg" viewBox="0 0 64.444 64.444"><defs><style>.cls-1{fill:#00a519;}</style></defs><path id="Path_18" data-name="Path 18" class="cls-1" d="M58.827,51.394,34.336,26.9a3.949,3.949,0,0,0-.638-4.737l-.093-.093L46.286,9.39a2.476,2.476,0,0,0-.844-4.062A6.769,6.769,0,0,0,42.974,4.9c-4.332,0-10.9,3.273-17.727,8.805l-.533-.532a3.944,3.944,0,0,0-4.737-.64l-.14-.14A5.449,5.449,0,0,0,12.131,20.1h0l.14.139a3.949,3.949,0,0,0,.638,4.738l.535.535c-5.454,6.749-10.3,15.291-8.383,20.2a2.48,2.48,0,0,0,4.062.844L21.805,33.872l.093.093a3.945,3.945,0,0,0,4.737.641L51.124,59.1a5.449,5.449,0,1,0,7.706-7.706ZM24.685,32.12a.933.933,0,0,1-.668-.274l-2.208-2.208L7.671,43.776a13.289,13.289,0,0,1,1.55-6.207A51.455,51.455,0,0,1,16.626,26.4l.888-1.055-2.473-2.473a.942.942,0,0,1,0-1.332l6.221-6.222a.945.945,0,0,1,1.332,0l2.473,2.473,1.055-.888c6.585-5.537,13.045-8.979,16.859-8.979a5.033,5.033,0,0,1,.521.024L29.366,22.081l2.208,2.208a.945.945,0,0,1,0,1.333l-6.222,6.221A.934.934,0,0,1,24.685,32.12ZM13.645,15.556a2.453,2.453,0,0,1,3.886-1.2c.064.051.125.108.186.167l.037.036L14.3,18.016l-.036-.037a2.437,2.437,0,0,1-.717-1.717,2.471,2.471,0,0,1,.091-.706ZM57.4,55.481a2.433,2.433,0,0,1-4.146,1.494L28.865,32.586l3.457-3.456,4.889,4.889,19.5,19.5a2.441,2.441,0,0,1,.7,1.494A2.471,2.471,0,0,1,57.4,55.481Z"/></svg>