<svg id="Layer_1" data-name="Layer 1" xmlns="http://www.w3.org/2000/svg" xmlns:xlink="http://www.w3.org/1999/xlink" viewBox="0 0 64.444 64.444"><defs><style>.cls-1{fill:none;}.cls-2{clip-path:url(#clip-path);}.cls-3{fill:#fbfbfb;}.cls-4{fill:#e3e6e8;}</style><clipPath id="clip-path"><rect class="cls-1" x="3.193" y="2.374" width="59.03" height="59.03"/></clipPath></defs><g class="cls-2"><g id="Symbol_6_6" data-name="Symbol 6 6"><g id="Path_23" data-name="Path 23"><path class="cls-3" d="M32.707,59.882A28,28,0,0,1,21.812,6.1,28,28,0,0,1,43.6,57.683,27.821,27.821,0,0,1,32.707,59.882Z"/><path class="cls-4" d="M32.707,5.417A26.48,26.48,0,0,0,22.4,56.282,26.48,26.48,0,0,0,43.011,7.5a26.3,26.3,0,0,0-10.3-2.079m0-3.043A29.515,29.515,0,1,1,3.193,31.889,29.515,29.515,0,0,1,32.707,2.374Z"/></g><path id="Path_22" data-name="Path 22" class="cls-4" d="M42.65,33.839a7.112,7.112,0,0,0-.867-1.083c-.05-.052-.113-.115-.188-.182-.023-.023-.047-.046-.071-.067a5.7,5.7,0,0,0-1.292-.9A5.212,5.212,0,0,0,42.3,29.771a5.618,5.618,0,0,0,.867-3.236,5.791,5.791,0,0,0-1.7-4.27,6.783,6.783,0,0,0-5-1.7H34.9V16.716a.956.956,0,0,0-.954-.954h-.081a.958.958,0,0,0-.953.954v3.843H29.119V16.716a.958.958,0,0,0-.954-.954h-.081a.957.957,0,0,0-.953.954v3.852H25a.957.957,0,0,0-.953.954V21.6a.956.956,0,0,0,.953.953h2.015v4.435c-2.13.688-4.335,1.372-6.617.874a.14.14,0,0,0-.167.107.138.138,0,0,0,.021.11,13.368,13.368,0,0,0,6.763,5.427v.542l0,1.98h0v5.9H25.005a.956.956,0,0,0-.953.954v.079a.956.956,0,0,0,.953.954h2.13V47.58a.957.957,0,0,0,.953.953h.08a.956.956,0,0,0,.953-.953V43.912h3.795V47.58a.956.956,0,0,0,.953.953h.079a.957.957,0,0,0,.952-.953V43.912h1.8a7.27,7.27,0,0,0,3.737-.918,6.182,6.182,0,0,0,2.385-2.434,6.753,6.753,0,0,0,.817-3.253A6.192,6.192,0,0,0,42.65,33.839ZM29.119,22.56h6.906a6.023,6.023,0,0,1,3.753,1,3.534,3.534,0,0,1,1.284,2.97,3.817,3.817,0,0,1-1.284,3.086,4.317,4.317,0,0,1-1.7.845,15.321,15.321,0,0,0-7.7-1.613c2.39-.609,4.952-.985,7.4.1a.141.141,0,0,0,.163-.221c-3.031-3.3-5.964-3.154-8.819-2.381ZM40.162,40.626a5.342,5.342,0,0,1-3.8,1.284h-7.24V34.015a13.006,13.006,0,0,0,7.752-1.3,7.194,7.194,0,0,1,.979.122h0q.222.045.432.1l.056.017c.116.034.23.072.341.113l.061.021a4.624,4.624,0,0,1,1.418,7.527Z"/></g></g></svg>