<svg id="Layer_1" data-name="Layer 1" xmlns="http://www.w3.org/2000/svg" viewBox="0 0 64.444 64.444"><defs><style>.cls-1,.cls-4{fill:none;stroke:#263238;}.cls-1{stroke-width:2px;}.cls-2{fill:#00a519;}.cls-3{fill:#fff;}.cls-4{stroke-width:3px;}.cls-5{fill:#fbfbfb;}</style></defs><line id="Line_5" data-name="Line 5" class="cls-1" x1="32.952" y1="33.741" x2="32.952" y2="55.147"/><line id="Line_6" data-name="Line 6" class="cls-1" x1="32.952" y1="55.147" x2="54.359" y2="55.147"/><line id="Line_7" data-name="Line 7" class="cls-1" x1="11.546" y1="55.147" x2="32.952" y2="55.147"/><path id="ic_cloud_24px" data-name="ic cloud 24px" class="cls-2" d="M50.039,20.969A18.014,18.014,0,0,0,16.38,16.161a14.419,14.419,0,0,0,1.563,28.753H49.2a11.987,11.987,0,0,0,.841-23.945Z"/><g id="Ellipse_4" data-name="Ellipse 4"><circle class="cls-3" cx="32.952" cy="55.147" r="4.816"/><circle class="cls-4" cx="32.952" cy="55.147" r="3.211"/></g><path id="checked-icon" class="cls-5" d="M24.87,29.819a.627.627,0,0,1-.009-.888l.009-.01.881-.9a.6.6,0,0,1,.85-.031c.011.01.021.021.031.031l.063.065,3.463,3.785a.3.3,0,0,0,.423.017l.017-.017,8.435-8.919H39.1a.6.6,0,0,1,.849-.032c.011.01.022.021.032.032l.882.9a.63.63,0,0,1,.008.89l-.008.008h0L30.787,35.4a.6.6,0,0,1-.847.034l-.034-.034L25,30.012Z"/></svg>