<svg id="Layer_1" data-name="Layer 1" xmlns="http://www.w3.org/2000/svg" viewBox="0 0 64.444 64.444"><defs><style>.cls-1,.cls-4{fill:none;stroke:#263238;}.cls-1{stroke-width:2px;}.cls-2{fill:#e90000;}.cls-3{fill:#fff;}.cls-4{stroke-width:3px;}.cls-5{fill:#fbfbfb;}</style></defs><line id="Line_5" data-name="Line 5" class="cls-1" x1="33.238" y1="33.741" x2="33.238" y2="55.147"/><line id="Line_6" data-name="Line 6" class="cls-1" x1="33.238" y1="55.147" x2="54.645" y2="55.147"/><line id="Line_7" data-name="Line 7" class="cls-1" x1="11.832" y1="55.147" x2="33.238" y2="55.147"/><path id="ic_cloud_24px" data-name="ic cloud 24px" class="cls-2" d="M50.325,20.969a18.014,18.014,0,0,0-33.659-4.808,14.419,14.419,0,0,0,1.563,28.753H49.482a11.987,11.987,0,0,0,.842-23.945Z"/><g id="Ellipse_4" data-name="Ellipse 4"><circle class="cls-3" cx="33.238" cy="55.147" r="4.816"/><circle class="cls-4" cx="33.238" cy="55.147" r="3.211"/></g><path id="ic_sync_problem_24px" data-name="ic sync problem 24px" class="cls-5" d="M22,29.231a9.007,9.007,0,0,0,2.682,6.412L22,38.322h6.82V31.5l-2.546,2.546A6.809,6.809,0,0,1,28.82,22.809v-2.38A9.087,9.087,0,0,0,22,29.231Zm9.1,5.684h2.273V32.638H31.1ZM42.461,20.134h-6.82v6.82l2.546-2.547a6.809,6.809,0,0,1-2.546,11.239v2.376a9.056,9.056,0,0,0,4.137-15.206ZM31.1,30.364h2.273v-6.82H31.1Z"/></svg>