<svg id="Layer_1" data-name="Layer 1" xmlns="http://www.w3.org/2000/svg" viewBox="0 0 64.444 64.444"><defs><style>.cls-1{fill:#e80000;}</style></defs><path id="ic_update_24px" data-name="ic update 24px" class="cls-1" d="M58.447,27.24H38.855l7.918-8.148A20.34,20.34,0,0,0,18.224,18.8a19.866,19.866,0,0,0-.2,28.094q.1.1.2.2a20.285,20.285,0,0,0,28.549,0,18.82,18.82,0,0,0,5.894-14.13h5.78a27,27,0,0,1-7.629,18.175,26.161,26.161,0,0,1-36.755,0,25.543,25.543,0,0,1-.285-36.123l.227-.228a25.969,25.969,0,0,1,36.553,0l7.889-8.119ZM33.885,21.115V33.4L44,39.406l-2.081,3.5-12.367-7.34V21.115Z"/></svg>