<svg id="Layer_1" data-name="Layer 1" xmlns="http://www.w3.org/2000/svg" viewBox="0 0 64.444 64.444"><defs><style>.cls-1{fill:#a4adb1;}</style></defs><path id="coupon-icon" class="cls-1" d="M8.531,60.808a2.59,2.59,0,0,1-1.6-2.4V6.59A2.589,2.589,0,0,1,9.519,4H53.484a2.589,2.589,0,0,1,2.59,2.588V58.409a2.592,2.592,0,0,1-4.423,1.833l-5.494-5.5-5.494,5.5a2.6,2.6,0,0,1-3.664,0l-5.494-5.5-5.5,5.5a2.6,2.6,0,0,1-3.664,0l-5.494-5.5-5.495,5.5a2.592,2.592,0,0,1-2.823.561ZM33.336,49.252l5.5,5.5,5.495-5.5a2.593,2.593,0,0,1,3.663,0L50.9,52.158V9.181H12.115V52.158l2.9-2.906a2.594,2.594,0,0,1,3.664,0l5.494,5.5,5.5-5.5a2.593,2.593,0,0,1,3.663,0ZM38.3,41.661v-.206c-2.148-.3-3.668-1.607-3.668-2.782a1.546,1.546,0,0,1,1.414-1.541,1.492,1.492,0,0,1,1.074.595,2.52,2.52,0,0,0,1.18.783V34.769c-1.533-.562-3.338-1.443-3.338-4.077A3.782,3.782,0,0,1,38.3,26.774v-.157a1.254,1.254,0,0,1,1.286-1.211,1.268,1.268,0,0,1,1.284,1.211v.092c1.286.19,2.789.729,2.789,1.9a1.527,1.527,0,0,1-1.395,1.541,1.818,1.818,0,0,1-.832-.26,3.913,3.913,0,0,0-.561-.25v2.92a4.463,4.463,0,0,1,3.119,4.432,4.139,4.139,0,0,1-3.121,4.3v.355a1.266,1.266,0,0,1-1.284,1.21,1.252,1.252,0,0,1-1.285-1.2Zm2.52-3.555a1.59,1.59,0,0,0,.273-1,1.8,1.8,0,0,0-.273-1.061Zm-2.971-7.53a1.032,1.032,0,0,0,.493.978V29.717a.857.857,0,0,0-.5.859ZM19.885,42a2.592,2.592,0,0,1,0-5.183h9.42a2.592,2.592,0,1,1,0,5.183Zm0-10.364a2.591,2.591,0,1,1,0-5.182h9.42a2.591,2.591,0,0,1,0,5.182Zm0-10.365a2.592,2.592,0,0,1,0-5.183H43.123a2.592,2.592,0,0,1,0,5.183Z"/></svg>